<?xml version="1.0" encoding="UTF-8"?>
<svg width="32px" height="32px" viewBox="0 0 32 32" version="1.1" xmlns="http://www.w3.org/2000/svg" xmlns:xlink="http://www.w3.org/1999/xlink">
    <!-- Generator: Sketch 48.1 (47250) - http://www.bohemiancoding.com/sketch -->
    <title>relay</title>
    <desc>Created with Sketch.</desc>
    <defs></defs>
    <g id="Artboard" stroke="none" stroke-width="1" fill="none" fill-rule="evenodd" transform="translate(-448.000000, -65.000000)">
        <path d="M462.904942,71.0268217 L467.575247,74.1403583 C468.095041,73.9073638 468.671277,73.7777778 469.277778,73.7777778 C471.57895,73.7777778 473.444444,75.6432726 473.444444,77.9444444 C473.444444,80.2456163 471.57895,82.1111111 469.277778,82.1111111 C468.296528,82.1111111 467.394661,81.7717448 466.682726,81.2041667 L462.234549,83.9842882 C462.366276,84.5801474 462.366276,85.197587 462.234549,85.7934462 L466.682726,88.5735677 C467.394661,88.006033 468.296528,87.6666667 469.277778,87.6666667 C471.57895,87.6666667 473.444444,89.5321615 473.444444,91.8333333 C473.444444,94.1345052 471.57895,96 469.277778,96 C466.976606,96 465.111111,94.1345052 465.111111,91.8333333 C465.111023,91.5291178 465.144147,91.2258017 465.209896,90.928776 L460.761719,88.1486545 C460.049783,88.7161892 459.147917,89.0555556 458.166667,89.0555556 C455.865495,89.0555556 454,87.1900608 454,84.8888889 C454,82.587717 455.865495,80.7222222 458.166667,80.7222222 C459.147917,80.7222222 460.049783,81.0615885 460.761719,81.6291233 L465.209896,78.8490017 C465.145399,78.5577257 465.111111,78.2551215 465.111111,77.9444444 C465.111111,77.2224682 465.29474,76.5433776 465.617841,75.95133 L461.36038,73.1130222 C460.739536,73.5327021 459.990981,73.7777778 459.185185,73.7777778 C457.037411,73.7777778 455.296296,72.0366629 455.296296,69.8888889 C455.296296,67.7411149 457.037411,66 459.185185,66 C461.332959,66 463.074074,67.7411149 463.074074,69.8888889 C463.074074,70.2848045 463.01491,70.6669018 462.904942,71.0268217 Z" id="Line-2" fill="#000000" fill-rule="nonzero"></path>
    </g>
</svg>