<?xml version="1.0" encoding="UTF-8"?>
<svg width="16px" height="16px" viewBox="0 0 16 16" version="1.1" xmlns="http://www.w3.org/2000/svg" xmlns:xlink="http://www.w3.org/1999/xlink">
    <g id="Icon---Tor---Grey10" stroke="none" stroke-width="1" fill="none" fill-rule="evenodd" fill-opacity="0.8">
        <g id="Tor-Button-Icon" fill="#F9F9FA">
            <path d="M7.06561268,5.02241519 C6.77772045,5.2116121 5.67952408,5.90554501 5.6853992,5.90178938 C5.35790364,6.11113858 5.09635335,6.28354515 4.86413018,6.44457064 C4.45268439,6.72987059 4.15887546,6.96359333 3.97499388,7.15193679 C2.95731966,8.16499644 2.66333288,8.97771922 2.77290903,10.3548433 C2.86347409,11.8242645 4.01769529,13.1628244 5.73360996,13.7141752 C6.42393225,13.9308094 7.08993386,14 8.24418607,14 C9.69409954,14 11.010192,13.6175745 11.8475477,12.9475461 C12.7611494,12.2214478 13.2954545,11.1244618 13.2954545,10.0058997 C13.2954545,8.86286776 12.7876949,7.76058164 11.8769727,6.9600938 C11.3838667,6.53505399 10.722397,6.11798563 9.75901067,5.60447735 C9.08955454,5.26286683 8.4719792,4.75203246 8.02479915,4.11379651 C7.77978416,4.4739196 7.45874047,4.78154253 7.06561268,5.02241519 Z M13.1898674,5.45132743 C14.5364638,6.63126844 15.2954545,8.28318584 15.2954545,10.0058997 C15.2954545,11.7286136 14.4874967,13.4041298 13.0919331,14.5132743 C11.7943039,15.5516224 9.98251962,16 8.24418607,16 C7.16690894,16 6.1875661,15.9528024 5.13477254,15.6224189 C2.71089901,14.8436578 0.923598318,12.8613569 0.776696891,10.4778761 C0.629795465,8.63716814 1.07049974,7.22123894 2.56399758,5.73451327 C3.32298828,4.95575221 4.88993683,4.05899705 5.96721396,3.35103245 C6.50585253,3.02064897 7.06897466,2.02949853 5.99169753,0.16519174 L6.21204967,0 L9.41939748,1.27433628 C8.97869321,2.64306785 10.2518389,3.61061947 10.6680596,3.82300885 C11.5984353,4.31858407 12.4798439,4.83775811 13.1898674,5.45132743 Z" id="Border" fill-rule="nonzero"></path>
            <path d="M8.27272727,5 C8.49625435,5.67889606 9.03172133,6.21869701 9.63636041,6.5268042 C10.3279607,6.89485621 10.8036714,7.19446079 11.1684763,7.5087455 C11.8759239,8.12902347 12.2727273,8.98864463 12.2727273,9.88278877 C12.2727273,10.7655864 11.852758,11.6266312 11.1353943,12.1959748 C10.4876507,12.713565 9.5005326,13 8.42423809,13 C8.37244863,13 8.32197458,12.9998006 8.27272727,12.9993871 L8.27272727,5 Z" id="Half-Content"></path>
        </g>
    </g>
</svg>
