<?xml version="1.0" encoding="UTF-8"?>
<svg width="24px" height="24px" viewBox="0 0 24 24" version="1.1" xmlns="http://www.w3.org/2000/svg" xmlns:xlink="http://www.w3.org/1999/xlink">
    <g id="Icon---Tor-" stroke="none" stroke-width="1" fill="none" fill-rule="evenodd">
        <g id="Tor-Button-Icon" transform="translate(2.000000, 1.000000)" fill="#0C0C0D">
            <path d="M8.27206791,6.27905236 C7.88283063,6.53485117 6.37928571,7.48491742 6.38222311,7.48303971 C5.92467564,7.77552366 5.55774616,8.01739321 5.22956304,8.24495813 C4.62774003,8.66226724 4.1902024,9.01032507 3.90524298,9.30237927 C2.34845165,10.8521114 1.86583368,12.1863028 2.03292037,14.2840468 C2.17744778,16.6290092 3.98280543,18.7226974 6.62789966,19.5725823 C7.66430091,19.8978216 8.64783036,20 10.3045058,20 C12.4566798,20 14.4305353,19.426444 15.7257727,18.390024 C17.1602235,17.2499732 18,15.5258216 18,13.7581121 C18,11.9676824 17.2065463,10.2463814 15.7919239,9.00433992 C15.0624549,8.37501782 14.1112169,7.77509114 12.728283,7.03810567 C11.4758566,6.39901667 10.3718516,5.26209475 9.95586156,3.83344263 C9.74417905,4.87665258 9.16812751,5.7299448 8.27206791,6.27905236 Z M17.1048177,7.49557522 C18.9563878,9.1179941 20,11.3893805 20,13.7581121 C20,16.1268437 18.889058,18.4306785 16.9701581,19.9557522 C15.1859178,21.3834808 12.6947145,22 10.3045058,22 C8.8232498,22 7.47665339,21.9351032 6.02906225,21.480826 C2.69623613,20.4100295 0.238697687,17.6843658 0.0367082257,14.4070796 C-0.165281236,11.8761062 0.440687149,9.92920354 2.49424667,7.88495575 C3.53785889,6.81415929 5.69241315,5.58112094 7.1736692,4.60766962 C7.91429722,4.15339233 8.68859016,2.79056047 7.20733411,0.227138643 L7.5103183,0 L11.9204215,1.75221239 C11.3144532,3.63421829 13.0650285,4.96460177 13.637332,5.25663717 C14.9165986,5.9380531 16.1285353,6.6519174 17.1048177,7.49557522 Z" id="Border" fill-rule="nonzero"></path>
            <path d="M10,5.80000019 C10.3632315,6.90320629 11.2333653,7.78038283 12.2159038,8.28105702 C13.3397544,8.87914153 14.1127842,9.36599897 14.7055922,9.87671162 C15.8551945,10.8846633 16.5,12.2815477 16.5,13.7345319 C16.5,15.1690781 15.81755,16.5682758 14.6518339,17.4934592 C13.5992506,18.3345433 11.9951837,18.8000002 10.2462051,18.8000002 C10.1620472,18.8000002 10.0800269,18.7996762 10,18.7990042 L10,5.80000019 Z" id="Half-Content"></path>
        </g>
    </g>
</svg>
