<?xml version="1.0" encoding="UTF-8"?>
<svg width="16px" height="16px" viewBox="0 0 16 16" version="1.1" xmlns="http://www.w3.org/2000/svg" xmlns:xlink="http://www.w3.org/1999/xlink">
  <g fill="context-fill" fill-opacity="context-fill-opacity">
    <path d="M7.06561268 5.02241519C6.77772045 5.2116121 5.67952408 5.90554501 5.6853992 5.90178938C5.35790364 6.11113858 5.09635335 6.28354515 4.86413018 6.44457064C4.45268439 6.72987059 4.15887546 6.96359333 3.97499388 7.15193679C2.95731966 8.16499644 2.66333288 8.97771922 2.77290903 10.3548433C2.86347409 11.8242645 4.01769529 13.1628244 5.73360996 13.7141752C6.42393225 13.9308094 7.08993386 14.0 8.24418607 14.0C9.69409954 14.0 11.010192 13.6175745 11.8475477 12.9475461C12.7611494 12.2214478 13.2954545 11.1244618 13.2954545 10.0058997C13.2954545 8.86286776 12.7876949 7.76058164 11.8769727 6.9600938C11.3838667 6.53505399 10.722397 6.11798563 9.75901067 5.60447735C9.08955454 5.26286683 8.4719792 4.75203246 8.02479915 4.11379651C7.77978416 4.4739196 7.45874047 4.78154253 7.06561268 5.02241519C7.06561268 5.02241519 7.06561268 5.02241519 7.06561268 5.02241519M13.1898674 5.45132743C14.5364638 6.63126844 15.2954545 8.28318584 15.2954545 10.0058997C15.2954545 11.7286136 14.4874967 13.4041298 13.0919331 14.5132743C11.7943039 15.5516224 9.98251962 16.0 8.24418607 16.0C7.16690894 16.0 6.1875661 15.9528024 5.13477254 15.6224189C2.71089901 14.8436578 0.923598318 12.8613569 0.776696891 10.4778761C0.629795465 8.63716814 1.07049974 7.22123894 2.56399758 5.73451327C3.32298828 4.95575221 4.88993683 4.05899705 5.96721396 3.35103245C6.50585253 3.02064897 7.06897466 2.02949853 5.99169753 0.16519174C5.99169753 0.16519174 6.21204967 0.0 6.21204967 0.0C6.21204967 0.0 9.41939748 1.27433628 9.41939748 1.27433628C8.97869321 2.64306785 10.2518389 3.61061947 10.6680596 3.82300885C11.5984353 4.31858407 12.4798439 4.83775811 13.1898674 5.45132743C13.1898674 5.45132743 13.1898674 5.45132743 13.1898674 5.45132743" />
    <path d="M8.27272727 5.0C8.49625435 5.67889606 9.03172133 6.21869701 9.63636041 6.5268042C10.3279607 6.89485621 10.8036714 7.19446079 11.1684763 7.5087455C11.8759239 8.12902347 12.2727273 8.98864463 12.2727273 9.88278877C12.2727273 10.7655864 11.852758 11.6266312 11.1353943 12.1959748C10.4876507 12.713565 9.5005326 13.0 8.42423809 13.0C8.37244863 13.0 8.32197458 12.9998006 8.27272727 12.9993871C8.27272727 12.9993871 8.27272727 5.0 8.27272727 5.0C8.27272727 5.0 8.27272727 5.0 8.27272727 5.0" />
  </g>
  <polygon points="5,7 9,15 1,15" fill="#414141"/>
  <path fill-rule="nonzero" fill="#FFE900" d="M9.78067261 13.96561722C10.0020131 14.40856238 9.97819173 14.93453755 9.71771774 15.35566142C9.45724375 15.7767853 8.9972698 16.03299087 8.50210118 16.03276007C8.50210118 16.03276007 1.42710118 16.03276007 1.42710118 16.03276007C0.932880889 16.03225088 0.474029854 15.77633171 0.213899592 15.3561101C-0.0462306709 14.93588849 -0.0706843715 14.41106384 0.149244037 13.96847436C0.149244037 13.96847436 3.68710118 6.889902932 3.68710118 6.889902932C3.92904842 6.405811394 4.42377158 6.1 4.96495832 6.1C5.50614506 6.1 6.00086822 6.405811394 6.24281547 6.889902932C6.24281547 6.889902932 9.78067261 13.96561722 9.78067261 13.96561722C9.78067261 13.96561722 9.78067261 13.96561722 9.78067261 13.96561722M4.25067261 8.88990293C4.25067261 8.88990293 4.25067261 11.74704579 4.25067261 11.74704579C4.25067261 12.1415349 4.57046922 12.4613315 4.96495832 12.4613315C5.35944743 12.4613315 5.67924404 12.1415349 5.67924404 11.74704579C5.67924404 11.74704579 5.67924404 8.88990293 5.67924404 8.88990293C5.67924404 8.49541382 5.35944743 8.17561722 4.96495832 8.17561722C4.57046922 8.17561722 4.25067261 8.49541382 4.25067261 8.88990293C4.25067261 8.88990293 4.25067261 8.88990293 4.25067261 8.88990293M4.96495832 14.78276007C5.45806971 14.78276007 5.85781547 14.38301432 5.85781547 13.88990293C5.85781547 13.39679155 5.45806971 12.99704579 4.96495832 12.99704579C4.47184694 12.99704579 4.07210118 13.39679155 4.07210118 13.88990293C4.07210118 14.38301432 4.47184694 14.78276007 4.96495832 14.78276007C4.96495832 14.78276007 4.96495832 14.78276007 4.96495832 14.78276007" />
</svg>
